<?xml version="1.0" standalone="no"?>
<!DOCTYPE svg PUBLIC "-//W3C//DTD SVG 20010904//EN"
 "http://www.w3.org/TR/2001/REC-SVG-20010904/DTD/svg10.dtd">
<svg version="1.0" xmlns="http://www.w3.org/2000/svg"
 width="512.000000pt" height="512.000000pt" viewBox="0 0 512.000000 512.000000"
 preserveAspectRatio="xMidYMid meet">
<metadata>
Created by potrace 1.14, written by Peter Selinger 2001-2017
</metadata>
<g transform="translate(0.000000,512.000000) scale(0.100000,-0.100000)"
fill="#000000" stroke="none">
<path d="M635 5105 c-158 -29 -289 -99 -405 -215 -118 -117 -186 -247 -216
-410 -20 -111 -20 -3729 0 -3840 30 -163 98 -293 216 -410 117 -118 247 -186
410 -216 111 -20 3729 -20 3840 0 163 30 293 98 410 216 118 117 186 247 216
410 20 111 20 3729 0 3840 -30 163 -98 293 -216 410 -117 118 -247 186 -410
216 -108 19 -3739 19 -3845 -1z m795 -1344 c0 -133 -2 -131 82 -131 20 0 39
-4 42 -9 3 -4 27 -11 53 -15 27 -3 82 -23 123 -44 84 -41 96 -64 66 -124 -9
-17 -16 -36 -16 -42 0 -6 -6 -23 -14 -38 -8 -15 -17 -42 -21 -60 -18 -84 -54
-120 -85 -84 -22 28 -179 96 -219 96 -16 0 -33 5 -36 10 -3 6 -40 10 -82 10
-173 0 -277 -84 -277 -225 0 -82 37 -140 144 -226 53 -42 187 -124 220 -134
13 -4 45 -21 71 -36 25 -16 50 -29 54 -29 4 0 27 -13 52 -30 24 -16 48 -30 53
-30 17 0 148 -137 182 -190 49 -78 67 -132 80 -237 16 -121 2 -224 -41 -317
-41 -86 -150 -200 -235 -246 -68 -36 -154 -70 -178 -70 -16 0 -18 -14 -18
-160 l0 -160 -165 0 -165 0 0 144 0 144 -37 5 c-133 18 -274 66 -365 123 l-37
24 30 72 c16 40 34 82 39 93 34 76 50 115 50 122 0 4 7 16 15 27 13 17 15 17
48 -8 47 -36 205 -106 239 -106 15 0 30 -4 33 -10 8 -12 232 -14 239 -1 3 4
24 11 46 15 60 9 126 78 135 141 24 159 -73 295 -292 410 -26 14 -88 48 -138
76 -49 27 -101 55 -115 61 -14 7 -27 15 -30 18 -3 3 -25 18 -50 34 -76 50
-148 131 -185 210 -76 163 -77 337 -3 494 56 121 226 260 339 278 l39 7 0 127
c0 69 3 130 7 133 3 4 78 7 165 7 l158 0 0 -119z m2171 -2210 c29 -29 29 -31
29 -146 0 -115 0 -117 -29 -146 l-29 -29 -677 0 -677 0 -29 29 c-29 29 -29 31
-29 146 0 115 0 117 29 146 l29 29 677 0 677 0 29 -29z"/>
</g>
</svg>
